<svg width="230.246382px" height="528.14px" viewBox="0 0 230.246382 528.14" version="1.1" xmlns="http://www.w3.org/2000/svg" xmlns:xlink="http://www.w3.org/1999/xlink">
    <g transform="translate(-226, -116)" fill="#ffffff">
        <g transform="translate(226, 116)">
            <path d="M57.45,507.17 C87.47,434.44 230.61,428.18 164.36,316.39 C212.12,434.18 9.66,435.54 36.6,528.14 C17.62,500.02 25.38,462.49 52.37,442.85 C75.91,424.74 107.39,421.7 130.58,402.53 C171.31,374.92 166.56,325.05 133.62,293.12 C132.68,292.18 131.28,291.3 130.01,291.17 C119.53,290.08 109.04,289.05 98.53,288.24 C79.12,286.75 60.28,288.9 42.67,297.89 C37.86,300.34 33.03,302.08 27.6,300.14 C33.72,298.92 39.79,297.68 44.87,293.88 C44.79,293.56 44.72,293.24 44.64,292.92 C41.32,293.46 38.49,294.75 34.98,294.61 C52.95,282.27 33.41,281.35 22.36,283.36 C60.84,254.97 50.11,209.81 117.04,223.24 C139.92,175.21 157.05,197.72 184.56,168.99 C179.89,182.55 173.44,195.52 167.6,208.66 C161.44,224.1 147.53,226.31 133.23,229.81 C138.31,228.28 140.3,231.71 142.79,234.8 C178.23,276.79 218.08,323.74 215.23,382.21 C203.29,447.16 91.81,452.67 57.45,507.17 L57.45,507.17 Z M98.73,237.9 C84.56,245.85 62.06,243.13 65.36,266.34 C72.8,249.43 82.85,269.83 98.73,237.9 L98.73,237.9 Z"></path>
            <path d="M103.24,292.22 C145.96,290.35 154.28,363.26 122.46,383.67 C75.04,415.94 -15.57,451.75 26.56,523.99 C26.33,524.2 26.11,524.4 25.88,524.61 C-15.13,490.92 3.46,427.39 41.47,399.45 C75.34,371.1 137.8,345.29 103.24,292.22 Z"></path>
            <path d="M180.53,61.39 C193.55,71.71 205.68,82.95 214.14,98.2 C235.91,61.72 209.58,23.4 181.1,1.42108547e-14 C225.16,22.33 250.67,81.66 209.34,121.31 C183.34,150.9 113.9,176.15 113.94,217.67 L95.83,217.67 C97.99,174.23 143.39,172.05 127.65,156.15 C117.75,141.99 113.4,126.39 114.33,108.12 C128.05,176.8 164.52,145.45 199.59,112.86 C211.65,96.64 189.69,74.44 180.53,61.4 L180.53,61.39 Z"></path>
            <path d="M85.9,78.04 C59.55,88.09 25.27,104.68 32.74,138.16 C42.5,137.44 52.22,136.73 61.94,136.01 C62,136.43 62.07,136.84 62.13,137.26 C26.33,142.58 40.67,154.56 60.06,170.78 C76.17,181.91 90.18,139.63 98.01,129.66 C93.29,140.64 88.5,151.59 83.89,162.61 C80.13,172.92 74.04,181.5 84.12,190.32 C90.76,198.2 93.17,207.28 91.84,217.64 C86.92,218.82 81.9,220.02 76.85,221.22 C83.3,186.96 61.25,189.69 40.71,170.75 C-2.36,130.04 36.14,81.84 85.9,78.04 Z"></path>
            <path d="M0.01,197.73 C23.76,225.14 49.6,200.73 64.2,227.4 C56.81,232.31 51.62,239.03 48,246.92 C29.16,243.37 12.18,223.59 0,197.74 L0.01,197.73 Z"></path>
            <path d="M39.77,287.74 C34.98,288.66 32.59,293.58 28.57,295.68 C22.5,295.98 16.89,294.03 15.98,287.06 C23.86,286.49 31.01,285.98 38.16,285.46 L39.77,287.73 L39.77,287.74 Z"></path>
            <path d="M90.51,244.92 C82.85,248.24 72.72,246.39 69.03,256.91 C77.44,255 86.24,254.41 90.51,244.92 Z" id="路径"></path>
        </g>
    </g>
</svg>