<?xml version="1.0" encoding="UTF-8"?>
<svg width="300px" height="300px" viewBox="0 0 300 300" version="1.1" xmlns="http://www.w3.org/2000/svg" xmlns:xlink="http://www.w3.org/1999/xlink">
    <title>logo</title>
    <g stroke="none" stroke-width="1" fill="none" fill-rule="evenodd">
        <g transform="translate(10, 10)">
            <rect stroke="#FFFFFF" stroke-width="20" x="0" y="0" width="280" height="280" rx="140"></rect>
            <g transform="translate(104, 97)" fill="#FFFFFF" fill-rule="nonzero">
                <path d="M101.092742,97.3076923 C112.300201,97.3076923 121.385081,106.36716 121.385081,117.543269 C121.385081,128.719378 112.300201,137.778846 101.092742,137.778846 C89.8852833,137.778846 80.8004032,128.719378 80.8004032,117.543269 C80.8004032,106.36716 89.8852833,97.3076923 101.092742,97.3076923 Z M27.0564516,84.0384615 C41.999324,84.0384615 54.1129032,96.1184264 54.1129032,111.019231 C54.1129032,125.920035 41.999324,138 27.0564516,138 C12.1135792,138 0,125.920035 0,111.019231 C0,96.1184264 12.1135792,84.0384615 27.0564516,84.0384615 Z M84.797379,0 C105.344048,0 122,16.6095639 122,37.0985577 C122,57.5877538 105.344048,74.1971154 84.797379,74.1971154 C64.2507097,74.1971154 47.5947581,57.5877538 47.5947581,37.0985577 C47.5947581,16.6095639 64.2507097,0 84.797379,0 Z" id="形状"></path>
            </g>
        </g>
    </g>
</svg>